<svg width="13" height="16" viewBox="0 0 13 16" fill="none" xmlns="http://www.w3.org/2000/svg">
<path d="M10.6641 6.93359C10.6641 9.59588 7.71065 12.3685 6.71889 13.2249C6.6265 13.2943 6.51403 13.3319 6.39844 13.3319C6.28284 13.3319 6.17037 13.2943 6.07798 13.2249C5.08622 12.3685 2.13281 9.59588 2.13281 6.93359C2.13281 5.80228 2.58223 4.7173 3.38219 3.91734C4.18215 3.11738 5.26712 2.66797 6.39844 2.66797C7.52975 2.66797 8.61473 3.11738 9.41469 3.91734C10.2146 4.7173 10.6641 5.80228 10.6641 6.93359Z" stroke="white" stroke-opacity="0.9" stroke-width="1.06641" stroke-linecap="round" stroke-linejoin="round"/>
<path d="M6.39844 8.5332C7.28188 8.5332 7.99805 7.81703 7.99805 6.93359C7.99805 6.05015 7.28188 5.33398 6.39844 5.33398C5.515 5.33398 4.79883 6.05015 4.79883 6.93359C4.79883 7.81703 5.515 8.5332 6.39844 8.5332Z" stroke="white" stroke-opacity="0.9" stroke-width="1.06641" stroke-linecap="round" stroke-linejoin="round"/>
</svg>
